<?xml version="1.0" encoding="UTF-8"?>
<svg width="229px" height="75px" viewBox="0 0 229 75" version="1.1" xmlns="http://www.w3.org/2000/svg" xmlns:xlink="http://www.w3.org/1999/xlink">
    <!-- Generator: Sketch 51.2 (57519) - http://www.bohemiancoding.com/sketch -->
    <title>site-logo-lined</title>
    <desc>Created with Sketch.</desc>
    <defs></defs>
    <g id="Symbols" stroke="none" stroke-width="1" fill="none" fill-rule="evenodd">
        <g id="Logos/Howard-Logo/White">
            <g id="site-logo-lined">
                <path d="M10.7725988,69.0913636 L10.7725988,73.2954545 C10.7725988,73.6131818 10.7863114,73.8156818 10.8151078,73.9036364 C10.8432186,73.9915909 10.9049251,74.0652273 10.9947425,74.1211364 C11.0873024,74.1770455 11.2333413,74.205 11.4349162,74.205 L11.5562725,74.205 L11.5562725,74.3352273 L8.7568503,74.3352273 L8.7568503,74.205 L8.89877545,74.205 C9.12640419,74.205 9.28821257,74.1790909 9.38625749,74.1286364 C9.48361677,74.0768182 9.5487515,74.0079545 9.58234731,73.9172727 C9.61594311,73.8293182 9.63376946,73.62 9.63376946,73.2954545 L9.63376946,70.6315909 C9.63376946,70.3895455 9.6227994,70.2388636 9.59811677,70.1788636 C9.57480539,70.1188636 9.53161078,70.0670455 9.46716168,70.0261364 C9.4033982,69.9845455 9.3293503,69.9620455 9.24638922,69.9620455 C9.11337725,69.9620455 8.95088323,70.0029545 8.7616497,70.0834091 L8.69171557,69.9552273 L10.643015,69.0913636 L10.7725988,69.0913636" id="Fill-5" fill="#FFFFFF" fill-rule="nonzero"></path>
                <path d="M15.7002126,71.4293182 C16.0800509,71.6945455 16.3433323,71.9420455 16.488,72.1697727 C16.6333533,72.3988636 16.7067156,72.6613636 16.7067156,72.9559091 C16.7067156,73.3697727 16.5435359,73.7202273 16.2212904,74.0065909 C15.8976737,74.2922727 15.4588713,74.4361364 14.9048832,74.4361364 C14.379006,74.4361364 13.9717425,74.31 13.6851497,74.0611364 C13.3971856,73.8102273 13.2532036,73.5040909 13.2532036,73.1434091 C13.2532036,72.8665909 13.3368503,72.6252273 13.5034581,72.4172727 C13.6693802,72.2086364 13.9484311,72.0197727 14.3378683,71.8479545 C13.9148353,71.5411364 13.6419551,71.2909091 13.5247126,71.0938636 C13.4047275,70.8968182 13.3464491,70.6690909 13.3464491,70.4079545 C13.3464491,70.0643182 13.4972874,69.7622727 13.7975928,69.5025 C14.0992695,69.24 14.5127036,69.1111364 15.0351527,69.1111364 C15.542518,69.1111364 15.9312695,69.2256818 16.2034641,69.4561364 C16.4756587,69.6879545 16.6127844,69.9647727 16.6127844,70.2865909 C16.6127844,70.5279545 16.5394222,70.7434091 16.3899551,70.9288636 C16.2425449,71.115 16.0121737,71.2813636 15.7002126,71.4293182 Z M14.6285749,72.0313636 C14.546985,72.1022727 14.4893922,72.1656818 14.4557964,72.2243182 C14.4036886,72.3136364 14.3563802,72.4431818 14.3152425,72.6109091 C14.2713623,72.7813636 14.2507934,72.9579545 14.2507934,73.1434091 C14.2507934,73.3820455 14.2823323,73.5818182 14.3454102,73.74 C14.4078024,73.9022727 14.4969341,74.0181818 14.6107485,74.0890909 C14.7259341,74.1593182 14.8452335,74.1940909 14.9679611,74.1940909 C15.1571946,74.1940909 15.3169461,74.1272727 15.4465299,73.9902273 C15.5767994,73.8545455 15.6419341,73.6677273 15.6419341,73.4311364 C15.6467335,72.9381818 15.3094042,72.4711364 14.6285749,72.0313636 Z M15.4026497,71.2404545 C15.4986377,71.1136364 15.5713144,70.9711364 15.6179371,70.8170455 C15.6645599,70.6609091 15.6885569,70.4890909 15.6885569,70.3029545 C15.6885569,69.975 15.6165659,69.7247727 15.4691557,69.5502273 C15.3608263,69.4172727 15.2106737,69.3518182 15.0186976,69.3518182 C14.8445479,69.3518182 14.6971377,69.4118182 14.5744102,69.5345455 C14.4523683,69.6572727 14.3920329,69.8072727 14.3920329,69.9886364 C14.3920329,70.1727273 14.4599102,70.3629545 14.5970359,70.56 C14.7341617,70.7584091 15.0029281,70.9834091 15.4026497,71.2404545 Z" id="Fill-6" fill="#FFFFFF" fill-rule="nonzero"></path>
                <path d="M21.5835928,69.0913636 L21.5835928,69.1922727 C21.110509,69.3095455 20.7306707,69.4602273 20.4433922,69.6436364 C20.1581707,69.8263636 19.9305419,70.0486364 19.7653054,70.3111364 C19.5966407,70.5729545 19.4691138,70.8968182 19.3765539,71.2840909 C19.4937964,71.2070455 19.5884132,71.1579545 19.6638323,71.1340909 C19.8338683,71.0843182 20.0073323,71.0590909 20.1807964,71.0590909 C20.5784611,71.0590909 20.9103054,71.1975 21.1763293,71.4763636 C21.4416677,71.7559091 21.5753653,72.1363636 21.5753653,72.6184091 C21.5753653,72.9572727 21.5047455,73.2675 21.3593922,73.5497727 C21.2140389,73.8334091 21.0097216,74.0515909 20.7457545,74.2063636 C20.4804162,74.3590909 20.1986228,74.4361364 19.8969461,74.4361364 C19.5692156,74.4361364 19.2661677,74.3495455 18.9891737,74.1770455 C18.7108084,74.0038636 18.4934641,73.7509091 18.3378263,73.4175 C18.1821886,73.0847727 18.1033413,72.7227273 18.1033413,72.3313636 C18.1033413,71.7545455 18.248009,71.2193182 18.5346018,70.7236364 C18.8211946,70.2272727 19.2277725,69.8325 19.7557066,69.54 C20.2836407,69.2468182 20.8938503,69.0961364 21.5835928,69.0913636 Z M19.3258174,71.5922727 C19.3011347,71.9406818 19.2881078,72.195 19.2881078,72.3579545 C19.2881078,72.7063636 19.3230749,73.0431818 19.3936946,73.3697727 C19.4629431,73.695 19.5596168,73.9234091 19.6809731,74.0556818 C19.7673623,74.1490909 19.869521,74.1940909 19.9881347,74.1940909 C20.109491,74.1940909 20.218506,74.1272727 20.3131228,73.9929545 C20.4084251,73.8572727 20.4557335,73.5825 20.4557335,73.1672727 C20.4557335,72.4711364 20.3679731,71.9890909 20.1917665,71.7252273 C20.0786377,71.5534091 19.9271138,71.4668182 19.7358234,71.4668182 C19.6302365,71.4668182 19.494482,71.5090909 19.3258174,71.5922727 Z" id="Fill-7" fill="#FFFFFF" fill-rule="nonzero"></path>
                <path d="M24.0518563,74.4361364 L25.4999042,70.1965909 L24.3994701,70.1965909 C23.9682096,70.1965909 23.6418503,70.2497727 23.4251916,70.3588636 C23.2722964,70.4359091 23.1488832,70.5797727 23.0480958,70.7904545 L22.8993144,70.7904545 L23.2846377,69.1922727 L26.4625269,69.1922727 L24.670979,74.4361364 L24.0518563,74.4361364" id="Fill-8" fill="#FFFFFF" fill-rule="nonzero"></path>
                <path d="M36.8628293,61.7522727 L36.8840838,61.7509091 C36.7099341,61.5286364 36.6482275,61.5456818 36.5412695,61.4393182 C36.4679072,61.3656818 36.7832964,61.2831818 36.6674251,61.0663636 C36.5035599,60.7588636 36.8306048,60.5986364 36.8285479,60.4820455 C36.8244341,60.2925 36.6420569,60.2870455 36.5035599,60.0865909 C36.4343114,59.9836364 36.6427425,59.6120455 36.4068862,59.5772727 L36.4068862,59.5711364 C36.152518,59.5990909 36.368491,59.9809091 36.2992425,60.0825 C36.1586886,60.285 35.9790539,60.2897727 35.9749401,60.4806818 C35.971512,60.5965909 36.2992425,60.7561364 36.1346916,61.0622727 C36.0201916,61.2797727 36.3348952,61.3636364 36.2615329,61.4365909 C36.1538892,61.5429545 36.0908114,61.5259091 35.9187186,61.7481818 L35.9776826,61.7522727 L30.3760958,61.7522727 L30.3760958,58.5654545 L31.3298054,56.8329545 L29.7679431,56.8329545 L29.7933114,41.2922727 L30.7477066,39.5543182 L29.7933114,39.5543182 L29.7933114,36.5931818 L29.7974251,36.5931818 C29.7967395,36.5904545 29.7967395,36.5904545 29.7933114,36.5877273 C29.6232754,36.3709091 29.5629401,36.3865909 29.4552964,36.2802273 C29.3819341,36.2086364 29.6966377,36.1240909 29.5821377,35.9072727 C29.4175868,35.6025 29.746003,35.4415909 29.7425749,35.3243182 C29.7364042,35.1334091 29.5560838,35.1306818 29.4175868,34.9275 C29.3483383,34.8245455 29.5560838,34.4543182 29.3188563,34.4175 L29.3188563,34.4134091 C29.0665449,34.4427273 29.282518,34.8190909 29.2125838,34.9247727 C29.0734012,35.1272727 28.8930808,35.1306818 28.8882814,35.3229545 C28.8855389,35.4375 29.2125838,35.5984091 29.0473473,35.9045455 C28.9321617,36.1206818 29.2475509,36.2045455 29.1748743,36.2775 C29.0686018,36.3838636 29.0048383,36.3668182 28.8334311,36.5877273 L26.7552904,36.5877273 L26.7408922,33.8509091 L11.7263084,33.8475 L11.7407066,36.5877273 L8.90768862,36.5877273 C8.74039521,36.3709091 8.67457485,36.3865909 8.5683024,36.2802273 C8.49356886,36.2086364 8.81101497,36.1240909 8.69445808,35.9072727 C8.53127844,35.6025 8.85832335,35.4415909 8.85558084,35.3243182 C8.85009581,35.1334091 8.67046108,35.1306818 8.53127844,34.9275 C8.45997305,34.8245455 8.67046108,34.4543182 8.4325479,34.4175 L8.4325479,34.4134091 C8.18092216,34.4427273 8.39689521,34.8190909 8.32558982,34.9247727 C8.18777844,35.1272727 8.00745808,35.1306818 8.00197305,35.3229545 C7.99923054,35.4375 8.32558982,35.5984091 8.16309581,35.9045455 C8.04585329,36.1206818 8.36261377,36.2045455 8.29062275,36.2775 C8.18160778,36.3838636 8.1199012,36.3668182 7.94712275,36.5877273 L7.94643713,36.5877273 L7.94643713,39.5543182 L6.98587126,39.5543182 L7.94643713,41.3031818 L7.94643713,56.8329545 L6.43462575,56.8329545 L7.40273353,58.5865909 L7.40273353,61.7577273 L1.90536228,61.7522727 L1.9869521,61.7481818 C1.81485928,61.5286364 1.75315269,61.5429545 1.6434521,61.4379545 C1.57214671,61.3656818 1.88616467,61.2804545 1.77097904,61.0636364 C1.6077994,60.7588636 1.93484431,60.5986364 1.9321018,60.4820455 C1.92661677,60.2897727 1.74698204,60.2870455 1.6077994,60.0852273 C1.53923653,59.9822727 1.74698204,59.6106818 1.51044012,59.5752273 L1.51044012,59.5697727 C1.25744311,59.5990909 1.4741018,59.9781818 1.40348204,60.0811364 C1.2642994,60.285 1.08329341,60.2870455 1.07849401,60.4793182 C1.07643713,60.5952273 1.40348204,60.7561364 1.23824551,61.0622727 C1.12374551,61.2784091 1.43913473,61.3622727 1.36508683,61.4338636 C1.25812874,61.5415909 1.1950509,61.5218182 1.02364371,61.7454545 L1.12648802,61.7522727 L0.0726766467,61.7522727 L1.04147006,63.4929545 L1.03255689,67.3343182 L36.8840838,67.32 L36.8861407,63.4963636 L37.8425928,61.7522727 L36.8628293,61.7522727" id="Fill-9" fill="#FFFFFF" fill-rule="nonzero"></path>
                <path d="M27.3915539,23.0086364 L25.8269491,21.5386364 C24.8533563,14.6618182 12.9247874,14.9543182 12.9247874,21.6204545 L11.3485269,22.6575 L12.7739491,24.0143182 L12.4133084,33.4159091 L12.4133084,33.9122727 L26.1581078,33.9975 L25.8461467,24.4929545 L27.3915539,23.0086364" id="Fill-10" fill="#FFFFFF" fill-rule="nonzero"></path>
                <path d="M21.7769401,11.6693182 L21.2997425,11.4361364 C21.1701587,10.2593182 20.404997,9.63272727 19.584985,9.51886364 L19.5884132,9.51886364 L19.3813533,0.679090909 L19.0104281,9.52227273 L19.0584222,9.52227273 C18.1904162,9.63272727 17.3992006,10.3097727 17.3992006,11.5234091 L18.3090299,11.5029545 L17.3992006,11.5234091 L16.8678383,11.7593182 L17.3635479,12.1615909 L17.2456198,16.125 L17.2456198,16.3193182 L18.477009,16.0459091 L20.1588563,16.0493182 L21.3792754,16.3915909 L21.2997425,12.1554545 L21.7769401,11.6693182" id="Fill-11" fill="#FFFFFF" fill-rule="nonzero"></path>
                <polyline id="Fill-12" fill="#122E62" fill-rule="nonzero" points="2.11859281 62.9829545 35.6396677 62.9877273 35.3023383 63.3886364 2.48334731 63.3886364 2.11859281 62.9829545"></polyline>
                <polyline id="Fill-13" fill="#122E62" fill-rule="nonzero" points="8.2631976 58.17 29.4834072 58.1740909 29.2715479 58.5736364 8.49562575 58.5736364 8.2631976 58.17"></polyline>
                <polyline id="Fill-14" fill="#122E62" fill-rule="nonzero" points="11.9271976 34.3077273 26.5283473 34.3104545 26.382994 34.5852273 12.0855778 34.5852273 11.9271976 34.3077273"></polyline>
                <path d="M23.3127485,49.1761364 C23.3127485,51.42 21.4005299,53.2363636 19.044024,53.2363636 C16.6868323,53.2363636 14.7746138,51.42 14.7746138,49.1761364 C14.7746138,46.9329545 16.6868323,45.1152273 19.044024,45.1152273 C21.4005299,45.1152273 23.3127485,46.9329545 23.3127485,49.1761364" id="Fill-15" fill="#225A9B" fill-rule="nonzero"></path>
                <polyline id="Fill-16" fill="#122E62" fill-rule="nonzero" points="17.3587485 12.1670455 17.3436647 12.03 18.2061856 11.64 19.9860778 11.6175 20.9596707 11.7218182 21.2997425 12.0259091 21.3017994 12.1704545 21.2634042 12.0402273 20.9253892 11.7756818 19.9819641 11.6679545 18.2137275 11.6959091 17.3861737 12.0763636 17.3587485 12.1670455"></polyline>
                <polyline id="Fill-17" fill="#122E62" fill-rule="nonzero" points="17.3731467 11.4606818 18.2596647 11.0120455 19.8503234 10.9425 21.0364611 11.1934091 21.2928862 11.3686364 21.2997425 11.4361364 21.0158922 11.2520455 19.8942036 10.9956818 18.2672066 11.0665909 17.4074281 11.5009091 17.3731467 11.4606818"></polyline>
                <path d="M17.8997096,32.2172727 L20.556521,32.2172727 L20.556521,25.1488636 C20.556521,23.5356818 18.2089281,23.2806818 18.0532904,25.2961364 L17.8997096,32.2172727" id="Fill-18" fill="#225A9B" fill-rule="nonzero"></path>
                <path d="M13.4156976,33.0559091 L15.6666168,32.4436364 L15.6666168,25.3738636 C15.6666168,23.7620455 13.6748653,24.0490909 13.5452814,26.0965909 L13.4156976,33.0559091" id="Fill-19" fill="#225A9B" fill-rule="nonzero"></path>
                <path d="M23.1351707,32.3277273 L25.1749162,32.8043182 L25.0213353,26.4320455 C25.0213353,24.8195455 23.2174461,23.5261364 23.1002036,25.4720455 L23.1351707,32.3277273" id="Fill-20" fill="#225A9B" fill-rule="nonzero"></path>
                <path d="M18.8856437,15.2843182 L19.6638323,15.2843182 L19.6638323,13.2136364 C19.6638323,12.7404545 18.9761467,12.6661364 18.9315808,13.2565909 L18.8856437,15.2843182" id="Fill-21" fill="#225A9B" fill-rule="nonzero"></path>
                <path d="M17.5726647,15.5304545 L18.2315539,15.3484091 L18.2315539,13.2790909 C18.2315539,12.8059091 17.6501407,12.8904545 17.6110599,13.4904545 L17.5726647,15.5304545" id="Fill-22" fill="#122E62" fill-rule="nonzero"></path>
                <path d="M20.4221377,15.3163636 L21.0179491,15.4547727 L20.9726976,13.5893182 C20.9726976,13.1147727 20.4440778,12.7384091 20.4097964,13.3084091 L20.4221377,15.3163636" id="Fill-23" fill="#122E62" fill-rule="nonzero"></path>
                <polyline id="Fill-24" fill="#FFFFFF" fill-rule="nonzero" points="18.9075838 46.4938636 18.4564401 49.1761364 22.0100539 50.5165909 18.6148204 49.0438636 18.9075838 46.4938636"></polyline>
                <polyline id="Fill-25" fill="#FFFFFF" fill-rule="nonzero" points="12.7197844 21.5884091 16.3303054 20.1054545 21.1413623 19.9861364 24.8053623 20.8220455 25.9236228 21.4452273"></polyline>
                <polyline id="Stroke-26" stroke="#225A9B" stroke-width="0.292" points="12.7197844 21.5884091 16.3303054 20.1054545 21.1413623 19.9861364 24.8053623 20.8220455 25.9236228 21.4452273"></polyline>
                <path d="M16.1842665,22.2968182 C16.1547844,22.3015909 12.7876617,23.4606818 12.7876617,23.4606818 L12.7739491,24.0143182 L12.9666108,23.5786364 L16.2178623,22.4897727 C16.2178623,22.4959091 20.9980659,22.3752273 20.9980659,22.3752273 C20.9980659,22.3786364 24.6305269,23.2090909 24.6380689,23.2097727 C24.6380689,23.2213636 25.6726826,24.1152273 25.6726826,24.1152273 L25.8461467,24.4929545 L25.8365479,24.0654545 L24.726515,23.0372727 C24.6833204,23.0154545 21.0179491,22.1788636 21.0179491,22.1788636 C20.990524,22.1747727 16.1842665,22.2968182 16.1842665,22.2968182" id="Fill-27" fill="#122E62" fill-rule="nonzero"></path>
                <polyline id="Fill-28" fill="#225A9B" fill-rule="nonzero" points="7.9745479 42.0729545 29.7638293 42.0729545 29.7638293 41.295 7.97249102 41.295 7.9745479 42.0729545"></polyline>
                <polygon id="Fill-29" fill="#FFFFFF" fill-rule="nonzero" points="7.96563473 41.295 9.24913174 41.295 9.24913174 41.6734091 7.96563473 41.6734091"></polygon>
                <polygon id="Fill-30" fill="#FFFFFF" fill-rule="nonzero" points="10.5312575 41.295 11.8154401 41.295 11.8154401 41.6734091 10.5312575 41.6734091"></polygon>
                <polygon id="Fill-31" fill="#FFFFFF" fill-rule="nonzero" points="13.1126497 41.295 14.3982036 41.295 14.3982036 41.6734091 13.1126497 41.6734091"></polygon>
                <polygon id="Fill-32" fill="#FFFFFF" fill-rule="nonzero" points="15.6775868 41.295 16.9624551 41.295 16.9624551 41.6734091 15.6775868 41.6734091"></polygon>
                <polygon id="Fill-33" fill="#FFFFFF" fill-rule="nonzero" points="18.2596647 41.295 19.542476 41.295 19.542476 41.6734091 18.2596647 41.6734091"></polygon>
                <polygon id="Fill-34" fill="#FFFFFF" fill-rule="nonzero" points="20.8163743 41.295 22.0998713 41.295 22.0998713 41.6734091 20.8163743 41.6734091"></polygon>
                <polygon id="Fill-35" fill="#FFFFFF" fill-rule="nonzero" points="23.3730838 41.295 24.6579521 41.295 24.6579521 41.6734091 23.3730838 41.6734091"></polygon>
                <polygon id="Fill-36" fill="#FFFFFF" fill-rule="nonzero" points="28.5194132 41.295 29.8042814 41.295 29.8042814 41.6734091 28.5194132 41.6734091"></polygon>
                <polygon id="Fill-37" fill="#FFFFFF" fill-rule="nonzero" points="25.938021 41.295 27.221518 41.295 27.221518 41.6734091 25.938021 41.6734091"></polygon>
                <polygon id="Fill-38" fill="#122E62" fill-rule="nonzero" points="9.47196108 37.1577273 9.83877246 37.1577273 9.83877246 39.4636364 9.47196108 39.4636364"></polygon>
                <polygon id="Fill-39" fill="#122E62" fill-rule="nonzero" points="10.624503 37.1577273 10.9926856 37.1577273 10.9926856 39.4636364 10.624503 39.4636364"></polygon>
                <polygon id="Fill-40" fill="#122E62" fill-rule="nonzero" points="11.774988 37.1577273 12.1445419 37.1577273 12.1445419 39.4636364 11.774988 39.4636364"></polygon>
                <polygon id="Fill-41" fill="#122E62" fill-rule="nonzero" points="12.9289012 37.1577273 13.2950269 37.1577273 13.2950269 39.4636364 12.9289012 39.4636364"></polygon>
                <polygon id="Fill-42" fill="#122E62" fill-rule="nonzero" points="14.0787006 37.1577273 14.4475689 37.1577273 14.4475689 39.4636364 14.0787006 39.4636364"></polygon>
                <polygon id="Fill-43" fill="#122E62" fill-rule="nonzero" points="15.2298713 37.1577273 15.5994251 37.1577273 15.5994251 39.4636364 15.2298713 39.4636364"></polygon>
                <polygon id="Fill-44" fill="#122E62" fill-rule="nonzero" points="16.3817275 37.1577273 16.7499102 37.1577273 16.7499102 39.4636364 16.3817275 39.4636364"></polygon>
                <polygon id="Fill-45" fill="#122E62" fill-rule="nonzero" points="17.5342695 37.1577273 17.9017665 37.1577273 17.9017665 39.4636364 17.5342695 39.4636364"></polygon>
                <polygon id="Fill-46" fill="#122E62" fill-rule="nonzero" points="19.8263263 37.1577273 20.1931377 37.1577273 20.1931377 39.4636364 19.8263263 39.4636364"></polygon>
                <polygon id="Fill-47" fill="#122E62" fill-rule="nonzero" points="20.9795539 37.1577273 21.3463653 37.1577273 21.3463653 39.4636364 20.9795539 39.4636364"></polygon>
                <polygon id="Fill-48" fill="#122E62" fill-rule="nonzero" points="22.1300389 37.1577273 22.4975359 37.1577273 22.4975359 39.4636364 22.1300389 39.4636364"></polygon>
                <polygon id="Fill-49" fill="#122E62" fill-rule="nonzero" points="23.2825808 37.1577273 23.6493922 37.1577273 23.6493922 39.4636364 23.2825808 39.4636364"></polygon>
                <polygon id="Fill-50" fill="#122E62" fill-rule="nonzero" points="24.4323802 37.1577273 24.7991916 37.1577273 24.7991916 39.4636364 24.4323802 39.4636364"></polygon>
                <polygon id="Fill-51" fill="#122E62" fill-rule="nonzero" points="25.5835509 37.1577273 25.9517335 37.1577273 25.9517335 39.4636364 25.5835509 39.4636364"></polygon>
                <polygon id="Fill-52" fill="#122E62" fill-rule="nonzero" points="26.7367784 37.1577273 27.1042754 37.1577273 27.1042754 39.4636364 26.7367784 39.4636364"></polygon>
                <polygon id="Fill-53" fill="#122E62" fill-rule="nonzero" points="27.8886347 37.1577273 28.2561317 37.1577273 28.2561317 39.4636364 27.8886347 39.4636364"></polygon>
                <path d="M47.0773263,35.8247727 C48.6659281,35.6529545 49.6594042,35.3597727 50.0563832,34.9459091 C50.4526766,34.5279545 50.6508234,33.4438636 50.6508234,31.6902273 L50.6508234,13.9895455 C50.6508234,12.5161364 50.4293653,11.5575 49.9864491,11.115 C49.5435329,10.6731818 48.5726826,10.3963636 47.0773263,10.29 L47.0773263,9.56454545 L58.3840299,9.56454545 L58.3840299,10.29 C56.8948443,10.3963636 55.9281078,10.6731818 55.4803922,11.115 C55.0333623,11.5575 54.8091617,12.5161364 54.8091617,13.9895455 L54.8091617,21.8972727 L67.2108144,21.8972727 L67.2108144,13.9895455 C67.2108144,12.5161364 66.9927844,11.5575 66.5553533,11.115 C66.1172365,10.6731818 65.145015,10.3963636 63.6359461,10.29 L63.6359461,9.56454545 L74.944021,9.56454545 L74.944021,10.29 C73.447979,10.3963636 72.4764431,10.6731818 72.0342126,11.115 C71.5899251,11.5575 71.3684671,12.5161364 71.3684671,13.9895455 L71.3684671,32.1252273 C71.3684671,33.6197727 71.5899251,34.5756818 72.0342126,34.995 C72.4764431,35.4143182 73.447979,35.6918182 74.944021,35.8247727 L74.944021,36.5502273 L63.6359461,36.5502273 L63.6359461,35.8247727 C65.2368892,35.6686364 66.234479,35.3788636 66.6239162,34.9540909 C67.0147246,34.5320455 67.2108144,33.4438636 67.2108144,31.6902273 L67.2108144,23.7102273 L54.8091617,23.7102273 L54.8091617,32.1252273 C54.8091617,33.6197727 55.0333623,34.5784091 55.4803922,35.0072727 C55.9281078,35.4320455 56.8948443,35.7047727 58.3840299,35.8247727 L58.3840299,36.5502273 L47.0773263,36.5502273 L47.0773263,35.8247727" id="Fill-54" fill="#FFFFFF" fill-rule="nonzero"></path>
                <path d="M82.2473383,12.5890909 C84.7677096,10.1884091 87.8674371,8.98431818 91.5478922,8.98431818 C95.2434311,8.98431818 98.3493293,10.1925 100.871757,12.6095455 C103.603988,15.2277273 104.970446,18.7131818 104.970446,23.0672727 C104.970446,27.4915909 103.558051,31.0084091 100.729832,33.6231818 C98.1964341,35.9631818 95.1351018,37.1311364 91.5478922,37.1311364 C87.7076856,37.1311364 84.5222545,35.8356818 81.987485,33.2481818 C79.4136347,30.6034091 78.126024,27.2127273 78.126024,23.0672727 C78.126024,18.7131818 79.5007096,15.2209091 82.2473383,12.5890909 Z M85.3299251,32.5970455 C87.0206856,34.6527273 89.0967695,35.6795455 91.5581766,35.6795455 C93.9667904,35.6795455 96.0271048,34.6779545 97.7363772,32.6754545 C99.447021,30.6736364 100.303371,27.4718182 100.303371,23.0672727 C100.303371,18.6115909 99.4374222,15.3906818 97.7068952,13.4093182 C95.9770539,11.4252273 93.927024,10.4352273 91.5581766,10.4352273 C89.1111677,10.4352273 87.0364551,11.4620455 85.3408952,13.5184091 C83.6439641,15.5747727 82.7951557,18.7575 82.7951557,23.0672727 C82.7951557,27.3668182 83.6405359,30.5420455 85.3299251,32.5970455 Z" id="Fill-55" fill="#FFFFFF" fill-rule="nonzero"></path>
                <path d="M117.401581,9.56454545 L117.401581,10.29 C116.600081,10.3172727 116.028266,10.3915909 115.687509,10.5102273 C115.077985,10.7386364 114.77288,11.1559091 114.77288,11.76 C114.77288,12.0293182 114.809904,12.2897727 114.883266,12.5454545 C114.956629,12.8018182 115.067015,13.1304545 115.213054,13.5320455 L121.137572,28.8831818 L125.479659,17.4354545 L123.560584,12.4370455 C123.197201,11.5193182 122.65624,10.905 121.932901,10.5940909 C121.503698,10.4059091 120.853722,10.3043182 119.984344,10.29 L119.984344,9.56454545 L130.891326,9.56454545 L130.891326,10.29 C129.897165,10.3043182 129.210165,10.3779545 128.837183,10.5102273 C128.233144,10.7386364 127.932153,11.2104545 127.932153,11.9195455 C127.932153,12.1622727 127.957521,12.3729545 128.012371,12.555 C128.064479,12.7363636 128.197491,13.1079545 128.411407,13.6725 L134.342096,28.9834091 L139.456886,15.1281818 C139.751707,14.3386364 139.951225,13.6363636 140.057497,13.0193182 C140.124003,12.6722727 140.15897,12.3913636 140.15897,12.1759091 C140.15897,11.4143182 139.797644,10.8859091 139.077734,10.5920455 C138.675955,10.4168182 138.073287,10.3172727 137.269045,10.29 L137.269045,9.56454545 L145.410201,9.56454545 L145.410201,10.29 C144.682063,10.3990909 144.130132,10.5695455 143.744808,10.7972727 C143.057808,11.1920455 142.542901,11.8704545 142.200772,12.8290909 L133.642754,37.0581818 L133.017461,37.0581818 L131.216314,32.3679545 L126.46285,19.7959091 L120.150266,37.0581818 L119.542114,37.0581818 L113.008757,19.0636364 C111.572365,15.105 110.570662,12.6709091 110.002275,11.76 C109.43526,10.8477273 108.553542,10.3581818 107.351635,10.29 L107.351635,9.56454545 L117.401581,9.56454545" id="Fill-56" fill="#FFFFFF" fill-rule="nonzero"></path>
                <path d="M142.722536,36.5502273 L142.722536,35.8247727 C143.791431,35.7061364 144.594302,35.3106818 145.129093,34.6397727 C145.662512,33.9668182 146.57097,32.1279545 147.846925,29.1197727 L156.339808,9.12886364 L157.305174,9.12886364 L167.42094,32.2036364 C168.079829,33.7527273 168.609135,34.7086364 169.003371,35.0747727 C169.398979,35.4436364 170.06541,35.6918182 170.995808,35.8247727 L170.995808,36.5502273 L160.608533,36.5502273 L160.608533,35.8247727 C161.817296,35.7211364 162.594114,35.5915909 162.940356,35.4402273 C163.286599,35.2881818 163.46212,34.9138636 163.46212,34.3172727 C163.46212,34.1175 163.392871,33.7656818 163.262602,33.2652273 C163.126162,32.7620455 162.940356,32.2329545 162.700386,31.6765909 L161.070647,27.7725 L150.335072,27.7725 C149.230524,30.4275 148.575749,32.0495455 148.368003,32.6393182 C148.162314,33.2290909 148.058099,33.6954545 148.058099,34.0377273 C148.058099,34.7277273 148.340578,35.2029545 148.89868,35.4695455 C149.239437,35.6277273 149.883928,35.745 150.832153,35.8247727 L150.832153,36.5502273 L142.722536,36.5502273 Z M160.373362,26.1040909 L155.685719,14.8806818 L151.027557,26.1040909 L160.373362,26.1040909 Z" id="Fill-57" fill="#FFFFFF" fill-rule="nonzero"></path>
                <path d="M172.966991,35.8247727 C174.564506,35.6795455 175.563467,35.3788636 175.954961,34.9138636 C176.347141,34.4529545 176.542545,33.3784091 176.542545,31.6902273 L176.542545,13.9895455 C176.542545,12.5413636 176.322458,11.5936364 175.881599,11.1443182 C175.442111,10.6963636 174.471946,10.4106818 172.966991,10.29 L172.966991,9.56454545 L184.318946,9.56454545 C186.676823,9.56454545 188.64732,9.86454545 190.22221,10.4597727 C193.21018,11.5915909 194.705536,13.6697727 194.705536,16.6963636 C194.705536,18.7275 194.045961,20.2895455 192.72544,21.3777273 C191.402177,22.4679545 189.610629,23.1838636 187.339141,23.5295455 L195.750434,33.855 C196.269455,34.4986364 196.785734,34.9684091 197.306811,35.2629545 C197.825832,35.5568182 198.490207,35.745 199.303362,35.8247727 L199.303362,36.5502273 L192.611626,36.5502273 L182.388901,24 L180.700198,24.0729545 L180.700198,32.1184091 C180.700198,33.6422727 180.930569,34.6077273 181.391997,35.0127273 C181.852054,35.4211364 182.855129,35.6918182 184.39985,35.8247727 L184.39985,36.5502273 L172.966991,36.5502273 L172.966991,35.8247727 Z M187.009353,21.7513636 C189.174569,20.8472727 190.255805,19.1475 190.255805,16.6465909 C190.255805,14.2445455 189.284955,12.6027273 187.34394,11.7252273 C186.305898,11.2534091 184.929841,11.0154545 183.215084,11.0154545 C182.057743,11.0154545 181.350859,11.0993182 181.088263,11.2670455 C180.830467,11.4354545 180.700198,11.8295455 180.700198,12.4459091 L180.700198,22.6213636 C183.643602,22.5225 185.742311,22.2313636 187.009353,21.7513636 Z" id="Fill-58" fill="#FFFFFF" fill-rule="nonzero"></path>
                <path d="M201.320482,35.8247727 C202.80144,35.6665909 203.768177,35.3959091 204.217949,35.0154545 C204.667722,34.6356818 204.893293,33.6715909 204.893293,32.1252273 L204.893293,13.9895455 C204.893293,12.4895455 204.675263,11.5234091 204.239889,11.0945455 C203.801772,10.6663636 202.829551,10.3963636 201.320482,10.29 L201.320482,9.56454545 L212.356362,9.56454545 C216.073841,9.56454545 219.220192,10.1768182 221.791299,11.3965909 C226.429578,13.5886364 228.747689,17.5036364 228.747689,23.1484091 C228.747689,25.1795455 228.329455,27.1104545 227.498473,28.9425 C226.667491,30.7738636 225.409362,32.3222727 223.732314,33.5836364 C222.663419,34.3813636 221.5575,34.9834091 220.411129,35.3959091 C218.319275,36.1670455 215.748168,36.5502273 212.694377,36.5502273 L201.320482,36.5502273 L201.320482,35.8247727 Z M209.541171,34.7795455 C209.86753,34.9922727 210.544246,35.0993182 211.572003,35.0993182 C214.770461,35.0993182 217.403275,34.4665909 219.46976,33.1997727 C222.637365,31.2531818 224.22391,27.9265909 224.22391,23.2159091 C224.22391,19.0152273 222.921216,15.8570455 220.307599,13.7359091 C218.066964,11.9222727 215.103677,11.0154545 211.411566,11.0154545 C210.489395,11.0154545 209.86753,11.1177273 209.541171,11.3147727 C209.215497,11.5145455 209.051632,11.9536364 209.051632,12.6334091 L209.051632,33.4609091 C209.051632,34.1270455 209.215497,34.5661364 209.541171,34.7795455 Z" id="Fill-59" fill="#FFFFFF" fill-rule="nonzero"></path>
                <path d="M55.6435719,47.1572727 L55.6435719,47.7 C54.483488,47.7804545 53.7313533,47.9747727 53.3871677,48.2863636 C53.0443533,48.5965909 52.8708892,49.3077273 52.8708892,50.4238636 L52.8708892,60.0143182 C52.8708892,61.5859091 53.0882335,62.8125 53.524979,63.69 C54.3353922,65.2902273 55.8746287,66.0920455 58.1392605,66.0920455 C60.6212365,66.0920455 62.2886856,65.2718182 63.1381796,63.6327273 C63.6133204,62.715 63.8498623,61.3009091 63.8498623,59.3870455 L63.8498623,51.5836364 C63.8498623,49.9404545 63.6524012,48.9081818 63.2567934,48.4915909 C62.8625569,48.0729545 62.1104222,47.8097727 61.0058743,47.7 L61.0058743,47.1572727 L68.0082006,47.1572727 L68.0082006,47.7 C66.8330329,47.8295455 66.0644431,48.1131818 65.7038024,48.5515909 C65.3438473,48.9879545 65.1635269,49.9990909 65.1635269,51.5836364 L65.1635269,59.3843182 C65.1635269,61.4509091 64.8419671,63.0668182 64.2029611,64.2265909 C63.0188802,66.3640909 60.7707036,67.4345455 57.4570599,67.4345455 C54.1811257,67.4345455 51.9542036,66.3811364 50.7701228,64.2702273 C50.1283743,63.1384091 49.8075,61.6472727 49.8075,59.7906818 L49.8075,50.4238636 C49.8075,49.3193182 49.6367784,48.6122727 49.2987635,48.3006818 C48.9573204,47.9918182 48.2154701,47.7906818 47.0725269,47.7 L47.0725269,47.1572727 L55.6435719,47.1572727" id="Fill-60" fill="#FFFFFF" fill-rule="nonzero"></path>
                <path d="M68.7994162,66.4915909 C70.0568593,66.3627273 70.8624731,66.0831818 71.2196856,65.6475 C71.5768982,65.2118182 71.7537904,64.2013636 71.7537904,62.6147727 L71.7537904,49.3609091 L71.3396707,48.8775 C70.8926407,48.3579545 70.513488,48.0361364 70.2015269,47.9161364 C69.8909371,47.7906818 69.4233383,47.7218182 68.7994162,47.7 L68.7994162,47.1572727 L73.9580868,47.1572727 L85.7227904,61.6152273 L85.7227904,51.5611364 C85.7227904,49.9097727 85.4787066,48.8325 84.9891677,48.3340909 C84.6641796,48.0122727 83.9497545,47.8002273 82.8417784,47.7 L82.8417784,47.1572727 L89.9181527,47.1572727 L89.9181527,47.7 C88.7635539,47.82 87.9956497,48.0981818 87.6137545,48.5420455 C87.2284311,48.9811364 87.0364551,49.9922727 87.0364551,51.5727273 L87.0364551,67.4345455 L86.5256617,67.4345455 L73.0674551,50.8922727 L73.0674551,62.6127273 C73.0674551,64.2586364 73.3087964,65.3304545 73.7942216,65.8295455 C74.1089251,66.1534091 74.8158084,66.3729545 75.9128144,66.4915909 L75.9128144,67.0336364 L68.7994162,67.0336364 L68.7994162,66.4915909" id="Fill-61" fill="#FFFFFF" fill-rule="nonzero"></path>
                <path d="M90.8917455,66.4915909 C92.0991377,66.4009091 92.8807545,66.2175 93.2365958,65.9379545 C93.5951796,65.6590909 93.7727575,64.9363636 93.7727575,63.7711364 L93.7727575,50.4238636 C93.7727575,49.3077273 93.5951796,48.5911364 93.2365958,48.2713636 C92.8807545,47.9522727 92.0991377,47.7613636 90.8917455,47.7 L90.8917455,47.1572727 L99.7171587,47.1572727 L99.7171587,47.7 C98.512509,47.7613636 97.7308922,47.9522727 97.3716228,48.2713636 C97.0157814,48.5911364 96.8368323,49.3077273 96.8368323,50.4238636 L96.8368323,63.7711364 C96.8368323,64.9363636 97.0157814,65.6590909 97.3716228,65.9379545 C97.7308922,66.2175 98.512509,66.4009091 99.7171587,66.4915909 L99.7171587,67.0336364 L90.8917455,67.0336364 L90.8917455,66.4915909" id="Fill-62" fill="#FFFFFF" fill-rule="nonzero"></path>
                <path d="M108.956692,47.1572727 L108.956692,47.7 C108.193587,47.7122727 107.673195,47.7613636 107.396201,47.8506818 C106.911461,48.0068182 106.67012,48.3259091 106.67012,48.8079545 C106.67012,49.0588636 106.757195,49.4038636 106.927916,49.8456818 C107.10138,50.2902273 107.417455,51.0238636 107.883683,52.0534091 L112.621377,62.5540909 L116.923698,51.1759091 C117.10676,50.6938636 117.248686,50.2786364 117.345359,49.9336364 C117.443404,49.5886364 117.494826,49.3077273 117.494826,49.0909091 C117.494826,48.51 117.241144,48.1159091 116.737207,47.9093182 C116.440329,47.7906818 115.948734,47.7218182 115.265847,47.7 L115.265847,47.1572727 L121.477644,47.1572727 L121.477644,47.7 C120.831781,47.7893182 120.357326,47.9584091 120.049479,48.2106818 C119.583937,48.5884091 119.12388,49.3513636 118.667251,50.4913636 L111.987171,67.4345455 L111.529856,67.4345455 L104.059931,50.8820455 C103.429838,49.4918182 102.927958,48.6259091 102.548805,48.2863636 C102.167596,47.9454545 101.615665,47.7511364 100.887527,47.7 L100.887527,47.1572727 L108.956692,47.1572727" id="Fill-63" fill="#FFFFFF" fill-rule="nonzero"></path>
                <path d="M122.577392,66.4915909 C123.692225,66.3729545 124.414192,66.1759091 124.746036,65.895 C125.076509,65.6168182 125.240374,64.9070455 125.240374,63.7711364 L125.240374,50.4238636 C125.240374,49.3486364 125.078566,48.6456818 124.751521,48.3156818 C124.425847,47.9870455 123.701138,47.7804545 122.577392,47.7 L122.577392,47.1572727 L138.62659,47.1572727 L138.772629,51.4731818 L138.006781,51.4731818 C137.751042,50.1490909 137.366404,49.2913636 136.851497,48.9027273 C136.335904,48.5113636 135.188847,48.3170455 133.410326,48.3170455 L129.284213,48.3170455 C128.83924,48.3170455 128.564302,48.39 128.459401,48.5311364 C128.356557,48.6736364 128.304449,48.9388636 128.304449,49.3261364 L128.304449,56.0072727 L132.937928,56.0072727 C134.239251,56.0072727 135.070234,55.8184091 135.427446,55.4427273 C135.787401,55.0643182 136.073308,54.2972727 136.290653,53.1429545 L136.984509,53.1429545 L136.984509,60.0688636 L136.290653,60.0688636 C136.063024,58.9104545 135.769575,58.1420455 135.410991,57.7677273 C135.054464,57.3920455 134.228967,57.2059091 132.937928,57.2059091 L128.304449,57.2059091 L128.304449,64.6554545 C128.304449,65.2520455 128.492997,65.6045455 128.873521,65.7115909 C129.252674,65.8206818 130.386704,65.8725 132.276982,65.8725 C134.323584,65.8725 135.836766,65.6529545 136.809674,65.2090909 C137.786009,64.7659091 138.671841,63.6940909 139.474713,61.9929545 L140.304323,61.9929545 L138.946778,67.0336364 L122.577392,67.0336364 L122.577392,66.4915909" id="Fill-64" fill="#FFFFFF" fill-rule="nonzero"></path>
                <path d="M141.086626,66.4915909 C142.244653,66.3825 142.963877,66.1561364 143.25047,65.8111364 C143.531578,65.4688636 143.67556,64.6656818 143.67556,63.4063636 L143.67556,50.4238636 C143.67556,49.3581818 143.515123,48.6593182 143.196305,48.33 C142.878174,48 142.173347,47.7906818 141.086626,47.7 L141.086626,47.1572727 L149.445126,47.1572727 C151.184566,47.1572727 152.633985,47.3795455 153.79544,47.8186364 C155.996308,48.6484091 157.096743,50.1811364 157.096743,52.4093182 C157.096743,53.9059091 156.607889,55.0554545 155.633611,55.8565909 C154.655219,56.6597727 153.32647,57.1875 151.645308,57.4418182 L157.861904,65.0522727 C158.247228,65.5234091 158.629808,65.8656818 159.015817,66.0804545 C159.399084,66.2959091 159.89068,66.4315909 160.490605,66.4915909 L160.490605,67.0336364 L155.617156,67.0336364 L148.062213,57.7861364 L146.74032,57.8597727 L146.74032,63.7752273 C146.74032,64.8906818 146.908985,65.5977273 147.247,65.895 C147.587072,66.1943182 148.329608,66.3940909 149.469808,66.4915909 L149.469808,67.0336364 L141.086626,67.0336364 L141.086626,66.4915909 Z M151.400539,56.1177273 C153.009024,55.4597727 153.816695,54.2229545 153.816695,52.4093182 C153.816695,50.6631818 153.093356,49.4713636 151.656964,48.8352273 C150.888374,48.4902273 149.871587,48.3170455 148.598374,48.3170455 C147.740653,48.3170455 147.22026,48.3811364 147.026913,48.5031818 C146.834937,48.6259091 146.74032,48.9081818 146.74032,49.3609091 L146.74032,56.7702273 C148.911707,56.6931818 150.466713,56.4763636 151.400539,56.1177273 Z" id="Fill-65" fill="#FFFFFF" fill-rule="nonzero"></path>
                <path d="M162.857395,61.0493182 C163.367503,62.3897727 163.966743,63.4609091 164.656485,64.2586364 C165.853593,65.6502273 167.343464,66.3463636 169.117871,66.3463636 C170.08118,66.3463636 170.914904,66.0429545 171.615617,65.4368182 C172.318386,64.8327273 172.670114,63.9838636 172.670114,62.8997727 C172.670114,61.9240909 172.313587,61.0731818 171.604647,60.3497727 C171.13979,59.8915909 170.165512,59.2009091 168.679069,58.2831818 L166.09562,56.6836364 C165.318802,56.1947727 164.698994,55.7025 164.240994,55.2027273 C163.3915,54.255 162.967781,53.2056818 162.967781,52.0602273 C162.967781,50.5438636 163.473775,49.2811364 164.486449,48.2713636 C165.501865,47.2636364 166.842269,46.7604545 168.515889,46.7604545 C169.202889,46.7604545 170.029072,46.9186364 170.99718,47.2411364 C171.967344,47.5602273 172.519275,47.7218182 172.658458,47.7218182 C173.032811,47.7218182 173.289237,47.6379545 173.431162,47.4702273 C173.575829,47.3025 173.683473,47.0665909 173.764377,46.7604545 L174.384871,46.7604545 L175.040332,53.1429545 L174.310823,53.1429545 C173.819913,51.2263636 173.029383,49.8879545 171.939919,49.1304545 C170.853883,48.3715909 169.780189,47.9918182 168.717464,47.9918182 C167.88991,47.9918182 167.169314,48.2331818 166.55362,48.7193182 C165.93724,49.2027273 165.630078,49.8722727 165.630078,50.7340909 C165.630078,51.5052273 165.867991,52.1638636 166.34176,52.7127273 C166.813473,53.2711364 167.549153,53.85 168.539201,54.4561364 L171.202183,56.0836364 C172.868946,57.1022727 174.043428,58.0315909 174.725629,58.8811364 C175.394802,59.7388636 175.732817,60.7506818 175.732817,61.9213636 C175.732817,63.4929545 175.135635,64.8027273 173.941269,65.8554545 C172.746904,66.9081818 171.222066,67.4345455 169.365383,67.4345455 C168.432243,67.4345455 167.455222,67.2572727 166.43912,66.9081818 C165.420961,66.5570455 164.839548,66.3825 164.691452,66.3825 C164.337668,66.3825 164.099069,66.4943182 163.977027,66.7179545 C163.853614,66.9402273 163.770653,67.1788636 163.733629,67.4345455 L163.076796,67.4345455 L162.165596,61.0493182 L162.857395,61.0493182" id="Fill-66" fill="#FFFFFF" fill-rule="nonzero"></path>
                <path d="M178.251817,66.4915909 C179.457838,66.4009091 180.240826,66.2175 180.598725,65.9379545 C180.956623,65.6590909 181.134886,64.9363636 181.134886,63.7711364 L181.134886,50.4238636 C181.134886,49.3077273 180.956623,48.5911364 180.598725,48.2713636 C180.240826,47.9522727 179.457838,47.7613636 178.251817,47.7 L178.251817,47.1572727 L187.078602,47.1572727 L187.078602,47.7 C185.871895,47.7613636 185.090278,47.9522727 184.734437,48.2713636 C184.375853,48.5911364 184.196904,49.3077273 184.196904,50.4238636 L184.196904,63.7711364 C184.196904,64.9363636 184.375853,65.6590909 184.734437,65.9379545 C185.090278,66.2175 185.871895,66.4009091 187.078602,66.4915909 L187.078602,67.0336364 L178.251817,67.0336364 L178.251817,66.4915909" id="Fill-67" fill="#FFFFFF" fill-rule="nonzero"></path>
                <path d="M188.320961,47.1572727 L205.426713,47.1572727 L205.572751,52.2347727 L204.842557,52.2347727 C204.490144,50.6365909 204.042428,49.5981818 203.49941,49.1161364 C202.954335,48.6327273 201.812078,48.3927273 200.067153,48.3927273 L198.387362,48.3927273 L198.387362,63.7711364 C198.387362,64.9363636 198.566311,65.6590909 198.924895,65.9379545 C199.282108,66.2175 200.063725,66.4009091 201.269746,66.4915909 L201.269746,67.0336364 L192.478614,67.0336364 L192.478614,66.4915909 C193.767596,66.3920455 194.569096,66.1813636 194.887913,65.8561364 C195.203988,65.5315909 195.360997,64.7140909 195.360997,63.4063636 L195.360997,48.3927273 L193.683263,48.3927273 C192.011015,48.3927273 190.874928,48.63 190.267461,49.1093182 C189.662737,49.5845455 189.208165,50.6270455 188.905117,52.2347727 L188.175608,52.2347727 L188.320961,47.1572727" id="Fill-68" fill="#FFFFFF" fill-rule="nonzero"></path>
                <path d="M215.399868,47.1572727 L215.399868,47.7 C214.686814,47.6829545 214.158195,47.7375 213.803039,47.8643182 C213.447198,47.9918182 213.26962,48.2652273 213.26962,48.6872727 C213.26962,48.8147727 213.298416,48.9722727 213.358066,49.1625 C213.416344,49.3554545 213.552099,49.6070455 213.759159,49.92 L218.169808,56.3672727 L222.481728,49.815 C222.657249,49.5327273 222.777234,49.2968182 222.82797,49.1134091 C222.881449,48.9265909 222.90956,48.7881818 222.90956,48.7002273 C222.90956,48.2686364 222.679874,47.9870455 222.216389,47.8506818 C221.939395,47.7613636 221.469054,47.7122727 220.799195,47.7 L220.799195,47.1572727 L227.399743,47.1572727 L227.399743,47.7 C226.788847,47.7313636 226.245829,47.9134091 225.765889,48.2447727 C225.020611,48.7643182 224.183458,49.7270455 223.249632,51.1397727 L218.791674,57.9129545 L218.791674,63.7738636 C218.791674,64.9390909 218.97885,65.6659091 219.355946,65.955 C219.733728,66.2440909 220.579108,66.4234091 221.890716,66.4915909 L221.890716,67.0336364 L212.698491,67.0336364 L212.698491,66.4915909 C214.063578,66.4118182 214.906901,66.2079545 215.236689,65.8820455 C215.562362,65.5554545 215.729656,64.7352273 215.729656,63.4234091 L215.729656,58.2034091 L211.778377,52.4304545 C210.412605,50.4436364 209.454781,49.1693182 208.903536,48.6061364 C208.354347,48.0422727 207.686545,47.7415909 206.899443,47.7 L206.899443,47.1572727 L215.399868,47.1572727" id="Fill-69" fill="#FFFFFF" fill-rule="nonzero"></path>
                <path d="M47.1733144,41.7572727 L227.492302,41.7572727" id="Fill-70" fill="#DD3B41" fill-rule="nonzero"></path>
                <path d="M47.1733144,41.7572727 L227.492302,41.7572727" id="Stroke-71" stroke="#DD3B41" stroke-width="1.702"></path>
            </g>
        </g>
    </g>
</svg>