<svg id="Layer_1" data-name="Layer 1" xmlns="http://www.w3.org/2000/svg" viewBox="0 0 161.36 180.43"><defs><style>.cls-1,.cls-10,.cls-7,.cls-8,.cls-9{fill:#fff;}.cls-2,.cls-3,.cls-5{fill:#003a63;}.cls-2,.cls-4,.cls-5{stroke:#fff;}.cls-2{stroke-width:0.2px;}.cls-4{fill:none;stroke-width:0.5px;}.cls-5{stroke-width:0.4px;}.cls-11,.cls-6{fill:#e31837;}.cls-6{stroke:#e31837;stroke-width:0.98px;}.cls-10,.cls-7,.cls-8,.cls-9{stroke:#fff;}.cls-7{stroke-width:0.3px;}.cls-8{stroke-width:0.3px;}.cls-9{stroke-width:0.25px;}.cls-10{stroke-width:0.25px;}</style></defs><title>howard_clocktower_logo_white_footer</title><path class="cls-1" d="M411.74,300.61h0c-.3-.39-.41-.36-.6-.55s.42-.28.22-.66c-.29-.54.29-.83.28-1s-.32-.34-.57-.7c-.12-.18.25-.84-.17-.9h0c-.44.05-.06.72-.19.9-.24.36-.56.37-.57.7s.57.49.28,1,.36.54.23.66-.3.16-.6.55h.1l-8.88,0v-5.11l1.52-2.78h-2.49l0-26,1.53-2.79h-1.53l0-4.76h0c-.3-.38-.4-.35-.59-.54s.42-.28.22-.66c-.29-.54.29-.82.28-1s-.32-.34-.57-.7c-.12-.18.25-.83-.17-.9h0c-.45,0-.07.72-.19.9-.24.36-.56.37-.57.71s.57.49.28,1c-.2.38.35.53.23.66s-.3.15-.6.54h-3.19l0-4.4h-24l0,4.4h-4.4c-.29-.39-.41-.36-.59-.55s.42-.27.22-.66.29-.82.28-1-.32-.35-.57-.71c-.12-.18.25-.83-.17-.9h0c-.44.05-.06.72-.19.9-.24.36-.56.36-.57.7s.57.49.28,1c-.2.38.36.53.23.66s-.3.16-.6.55h0l0,4.76H364l1.53,2.81V292.7h-2.42l1.55,2.81v5.09l-8.56,0h.14c-.3-.39-.41-.36-.6-.55s.43-.28.22-.66c-.28-.54.29-.82.29-1s-.33-.34-.57-.7c-.13-.18.24-.83-.17-.9h0c-.45.05-.07.72-.19.9-.25.36-.56.37-.57.71s.57.48.28,1c-.2.38.35.53.22.65s-.3.16-.6.56h.18l-1.77,0,1.54,2.8v6.16l57.24,0v-6.14l1.53-2.8-1.5,0Z" transform="translate(-302.74 -201.02)"/><path class="cls-1" d="M396.55,237.38l-2.5-2.36c-1.56-11-20.6-10.57-20.6.14l-2.52,1.66,2.28,2.18-.58,15.1v.79l21.95.14-.5-15.26,2.47-2.39Z" transform="translate(-302.74 -201.02)"/><path class="cls-1" d="M387.72,219.29l-.9-.59a3,3,0,0,0-2.59-3h0L383.76,201l-.64,14.69h.07a2.85,2.85,0,0,0-2.6,3.07l-.94.54.89.65-.19,6.36v.31l2-.44H385l1.95.55-.13-6.8.9-.68Z" transform="translate(-302.74 -201.02)"/><polygon class="cls-2" points="53.46 101.55 106.98 101.56 106.44 102.2 54.04 102.2 53.46 101.55 53.46 101.55"/><polygon class="cls-2" points="63.27 93.82 97.15 93.83 96.81 94.47 63.64 94.47 63.27 93.82 63.27 93.82"/><polygon class="cls-2" points="69.12 54.51 92.43 54.52 92.2 54.95 69.37 54.95 69.12 54.51 69.12 54.51"/><path class="cls-3" d="M390,279.58a6.82,6.82,0,1,1-6.81-6.52,6.67,6.67,0,0,1,6.81,6.52Z" transform="translate(-302.74 -201.02)"/><path class="cls-3" d="M381.39,252.17h4.24V240.82c0-2.59-3.75-3-4,.24l-.25,11.11Z" transform="translate(-302.74 -201.02)"/><path class="cls-3" d="M374.23,253.52l3.6-1V241.18c0-2.59-3.18-2.12-3.39,1.16l-.21,11.18Z" transform="translate(-302.74 -201.02)"/><path class="cls-3" d="M389.75,252.35l3.26.76-.25-10.23c0-2.59-2.88-4.66-3.07-1.54l.06,11Z" transform="translate(-302.74 -201.02)"/><path class="cls-3" d="M383,225h1.24l0-3.32c0-.76-1.11-.88-1.17.07l0,3.25Z" transform="translate(-302.74 -201.02)"/><path class="cls-3" d="M380.87,225.38l1.05-.29v-3.33c0-.76-.93-.62-1,.34l-.06,3.28Z" transform="translate(-302.74 -201.02)"/><path class="cls-3" d="M385.42,225l.95.23-.07-3c0-.76-.84-1.37-.9-.45l0,3.22Z" transform="translate(-302.74 -201.02)"/><polygon class="cls-1" points="80.27 74.26 79.39 78.74 85.22 80.72 80.39 78.14 80.27 74.26 80.27 74.26"/><polyline class="cls-4" points="70.38 34.09 75.56 31.59 83.83 31.52 89.68 32.86 91.47 33.86"/><path class="cls-5" d="M378.56,236l-5.51,1.87,0,.89.31-.7,5.28-1.74,7.76-.19,5.92,1.34h0s1.68,1.45,1.68,1.45l.28.61v-.69l-1.81-1.65c-.07,0-6-1.38-6-1.38l-7.86.19Z" transform="translate(-302.74 -201.02)"/><polygon class="cls-2" points="62.81 67.11 97.6 67.11 97.6 65.86 62.81 65.86 62.81 67.11 62.81 67.11"/><polygon class="cls-1" points="64.84 66.34 62.79 66.34 62.79 65.73 64.84 65.73 64.84 66.34 64.84 66.34"/><polygon class="cls-1" points="68.94 66.34 66.89 66.34 66.89 65.73 68.94 65.73 68.94 66.34 68.94 66.34"/><polygon class="cls-1" points="73.06 66.34 71.01 66.34 71.01 65.73 73.06 65.73 73.06 66.34 73.06 66.34"/><polygon class="cls-1" points="77.16 66.34 75.11 66.34 75.11 65.73 77.16 65.73 77.16 66.34 77.16 66.34"/><polygon class="cls-1" points="81.28 66.34 79.23 66.34 79.23 65.73 81.28 65.73 81.28 66.34 81.28 66.34"/><polygon class="cls-1" points="85.36 66.34 83.31 66.34 83.31 65.73 85.36 65.73 85.36 66.34 85.36 66.34"/><polygon class="cls-1" points="89.45 66.34 87.39 66.34 87.39 65.73 89.45 65.73 89.45 66.34 89.45 66.34"/><polygon class="cls-1" points="97.66 66.34 95.61 66.34 95.61 65.73 97.66 65.73 97.66 66.34 97.66 66.34"/><polygon class="cls-1" points="93.54 66.34 91.49 66.34 91.49 65.73 93.54 65.73 93.54 66.34 93.54 66.34"/><polygon class="cls-3" points="65.79 62.79 65.2 62.79 65.2 59.09 65.79 59.09 65.79 62.79 65.79 62.79"/><polygon class="cls-3" points="67.63 62.79 67.04 62.79 67.04 59.09 67.63 59.09 67.63 62.79 67.63 62.79"/><polygon class="cls-3" points="69.47 62.79 68.88 62.79 68.88 59.09 69.47 59.09 69.47 62.79 69.47 62.79"/><polygon class="cls-3" points="71.31 62.79 70.72 62.79 70.72 59.09 71.31 59.09 71.31 62.79 71.31 62.79"/><polygon class="cls-3" points="73.14 62.79 72.55 62.79 72.55 59.09 73.14 59.09 73.14 62.79 73.14 62.79"/><polygon class="cls-3" points="74.98 62.79 74.39 62.79 74.39 59.09 74.98 59.09 74.98 62.79 74.98 62.79"/><polygon class="cls-3" points="76.82 62.79 76.23 62.79 76.23 59.09 76.82 59.09 76.82 62.79 76.82 62.79"/><polygon class="cls-3" points="78.66 62.79 78.07 62.79 78.07 59.09 78.66 59.09 78.66 62.79 78.66 62.79"/><polygon class="cls-3" points="82.32 62.79 81.73 62.79 81.73 59.09 82.32 59.09 82.32 62.79 82.32 62.79"/><polygon class="cls-3" points="84.16 62.79 83.57 62.79 83.57 59.09 84.16 59.09 84.16 62.79 84.16 62.79"/><polygon class="cls-3" points="86 62.79 85.41 62.79 85.41 59.09 86 59.09 86 62.79 86 62.79"/><polygon class="cls-3" points="87.84 62.79 87.25 62.79 87.25 59.09 87.84 59.09 87.84 62.79 87.84 62.79"/><polygon class="cls-3" points="89.67 62.79 89.09 62.79 89.09 59.09 89.67 59.09 89.67 62.79 89.67 62.79"/><polygon class="cls-3" points="91.51 62.79 90.93 62.79 90.93 59.09 91.51 59.09 91.51 62.79 91.51 62.79"/><polygon class="cls-3" points="93.35 62.79 92.77 62.79 92.77 59.09 93.35 59.09 93.35 62.79 93.35 62.79"/><polygon class="cls-3" points="95.19 62.79 94.61 62.79 94.61 59.09 95.19 59.09 95.19 62.79 95.19 62.79"/><line class="cls-6" y1="156.68" x2="160.09" y2="156.68"/><path class="cls-7" d="M311.73,351.84v1l-4.27-.07-4.52.07v-1l2.71-.41V327.29L302.9,327l0-1.1,4.45.08,4.3-.08V327l-2.6.33v11.36h14.44V327.29l-2.68-.33,0-1.1,4.41.08,4.31-.08V327l-2.57.33v24.07l2.6.48v1l-4.26-.07-4.49.07v-1l2.64-.41V340.34H309.09v11Z" transform="translate(-302.74 -201.02)"/><path class="cls-7" d="M344.48,326c7.39,0,12.08,5.89,12.08,13.6s-4.69,13.55-12.08,13.55-12.12-5.85-12.12-13.55S337.05,326,344.48,326Zm0,25.53c5.93,0,8-5.15,8-11.93s-2.1-11.93-8-11.93-8,5.19-8,11.93S338.54,351.5,344.48,351.5Z" transform="translate(-302.74 -201.02)"/><path class="cls-7" d="M366,352.79,359.26,328l-2.45-.63,0-1.07,4.3.07,4.73,0v1.22L363,328l0,.34,4.94,18.7,6.75-20.66h2.13L384,347.12l4.26-18.89v-.29l-3.34-.49v-1.07l4.16.08,3.69-.08v1.15l-2.45.52-6.18,24.74H382.6L375,330.94l-7.36,21.85Z" transform="translate(-302.74 -201.02)"/><path class="cls-8" d="M392.16,351.53s1.59-3.81,3.15-8.33l5.85-16.85h2l8.78,25,2.39.48v1l-4.27-.07-4.3.07v-1l2.64-.4-2.24-6.52h-9.65c-1.34,4-2.1,6.52-2.1,6.52l2.78.4v1l-3.87-.07-3.43.07v-1Zm5-8.37h8.38l-4.19-12.33Z" transform="translate(-302.74 -201.02)"/><path class="cls-7" d="M424.48,351.86v1l-4.23-.07-4.44.07v-1l2.66-.4V327.75l-2.7-.33,0-1.07H426.1c6.26,0,9.6,2.7,9.6,6.48s-2.63,5.37-6.19,6.07l.14.63c4,.11,5.8,2.59,5.8,5.67v1.74c0,3.26.67,4.48,1.7,4.48.61,0,1-.45,1.35-1.3l.68.48a3.77,3.77,0,0,1-3.56,2.41c-2.41,0-3.55-2.33-3.55-6v-1.81c0-2.26-1.17-5-3.84-5h-6.38v11.26Zm-2.63-24v10.86h3.26c5.47.11,7-3.08,7-5.78,0-2.45-1.46-5.11-6.26-5.08Z" transform="translate(-302.74 -201.02)"/><path class="cls-7" d="M450.62,326.35c8.46,0,13.33,6,13.33,12.88,0,8.85-5.8,13.56-13.33,13.56h-5.29l-4.41.07v-1l2.63-.4V327.75l-2.7-.33.07-1.07Zm-.28,25c7.89.15,9.84-6.6,9.84-12,0-5.15-2.66-11.52-10.2-11.49l-3,0v23.37Z" transform="translate(-302.74 -201.02)"/><path class="cls-9" d="M305,375.55v-12.1l-1.95-.24,0-.77,3.05.08,3.25-.08v.77l-1.87.24v12c0,3,1.89,4.35,5,4.35s5-1.45,5-4.61V363.45l-1.9-.24v-.77l2.63.08,2.44-.08,0,.77-1.93.24v11.83c0,4.06-2.94,6-7.1,6C308.21,381.32,305,379.42,305,375.55Z" transform="translate(-302.74 -201.02)"/><path class="cls-10" d="M335.35,363.15v-.71l2.92.06,2.93-.06v.71l-1.92.28s-.21,3-.21,6.52v11h-1.72l-11.23-14.52V373c0,4.49.21,7,.21,7l2,.34v.7l-2.7-.05-3,.05v-.7l2-.29s.16-2.31.16-7v-8.21c0-1.43-1.12-1.46-2.19-1.61l0-.76,3.74.08,11.39,14.91V369.9c0-3.51-.18-6.42-.18-6.42Z" transform="translate(-302.74 -201.02)"/><path class="cls-10" d="M350,380.34v.7L347,381l-3.28.05v-.7l1.95-.29V363.43l-2-.23,0-.76,3.23.08,3.09-.08v.76l-1.87.23V380Z" transform="translate(-302.74 -201.02)"/><path class="cls-10" d="M367.39,363.46,361.07,381h-1.35l-6.34-17.53-1.8-.34v-.7l3.15.05,3.09-.05v.7l-1.9.29,5.1,14.31L366,363.41l-1.9-.29v-.7l2.78.05,2.34-.05v.7Z" transform="translate(-302.74 -201.02)"/><path class="cls-10" d="M383.94,362.44l.08,4.86h-1l-.15-.62a3.84,3.84,0,0,0-4-3.17h-4.08v7.63H376c1.87,0,3.25-.46,3.25-2v-.52H380v6h-.81v-.52c0-1.48-1.35-2-3.22-2h-1.2V380h4.94a4.36,4.36,0,0,0,4.4-3.09l.18-.65,1,0-.52,4.75H373.62l-3.25.05v-.7l1.95-.29V363.43l-2-.23,0-.76Z" transform="translate(-302.74 -201.02)"/><path class="cls-10" d="M394.45,380.34v.7l-3.09-.05-3.25.05v-.7l1.95-.29V363.43l-2-.23,0-.76h6.83c4.58,0,7,1.9,7,4.55s-1.92,3.77-4.52,4.26l.1.44c2.92.08,4.24,1.82,4.24,4v1.22c0,2.29.5,3.15,1.25,3.15.44,0,.73-.32,1-.91l.49.34a2.77,2.77,0,0,1-2.6,1.68c-1.77,0-2.6-1.63-2.6-4.23v-1.27c0-1.59-.86-3.53-2.81-3.53h-4V380Zm-1.92-16.83v7.61h1.69c4,.08,5.12-2.16,5.12-4.05,0-1.72-1.07-3.59-4.58-3.56Z" transform="translate(-302.74 -201.02)"/><path class="cls-10" d="M412.26,380.24a3.28,3.28,0,0,0,3.57-3.38c0-2.26-2.47-3.27-4.32-4.23-3.9-1.82-5-3.61-5-5.72,0-2.93,2.79-4.7,5.33-4.7a5.69,5.69,0,0,1,4.06,1.61l.41-1.4h.92v5h-1c-.39-2.89-2.21-4.21-4.32-4.21-2.36,0-3.43,1.27-3.43,3.17s2.37,2.72,4.63,3.94c3.25,1.69,4.89,3.35,4.89,5.56,0,3.43-2.68,5.38-5.67,5.38a6.18,6.18,0,0,1-4.52-1.79l-.45,1.5h-.8v-5.24l1.07,0C408.05,378.73,409.3,380.24,412.26,380.24Z" transform="translate(-302.74 -201.02)"/><path class="cls-10" d="M427.66,380.34v.7l-3.07-.05-3.28.05v-.7l1.95-.29V363.43l-2-.23,0-.76,3.23.08,3.09-.08v.76l-1.87.23V380Z" transform="translate(-302.74 -201.02)"/><path class="cls-10" d="M438.55,363.54v16.51l1.95.24,0,.75-3.09-.08-3.2.08v-.75l1.85-.24V363.54h-1.8c-2.18,0-3,1.24-3.61,3l-.26.78h-1l.29-4.84h15.13l.29,4.84h-1l-.26-.78c-.55-1.72-1.41-3-3.61-3Z" transform="translate(-302.74 -201.02)"/><path class="cls-10" d="M446,363.1v-.71l3,.05,3.17-.05v.71l-1.66.28v.26L455,372l4.37-8.23v-.36l-1.77-.29v-.73l3,.05,2.18-.05v.73l-1.66.34-5.44,9.84V380l1.9.34v.7l-3.12-.05-3.2.05v-.7l1.9-.29V373.3l-5.48-9.87Z" transform="translate(-302.74 -201.02)"/><path class="cls-11" d="M374.2,320.5v.44l-1.83,0-1.35,0v-.44l.89-.12v-5.92H371v-.52a1.74,1.74,0,0,0,1.52-.77l.78,0v7.2Z" transform="translate(-302.74 -201.02)"/><path class="cls-11" d="M380,316.51l0,.17a2.65,2.65,0,0,1,1.67,2.14,2.33,2.33,0,0,1-2.6,2.17c-1.67,0-2.72-.83-2.72-1.84a2,2,0,0,1,1.58-1.79l0-.25a2.37,2.37,0,0,1-1.32-1.95,2.17,2.17,0,0,1,2.4-2.06c1.48,0,2.4.78,2.4,1.73A1.82,1.82,0,0,1,380,316.51Zm-1.53.9a1.73,1.73,0,0,0-.92,1.63c0,.84.41,1.46,1.55,1.46.92,0,1.23-.58,1.23-1.35s-.79-1.3-1.47-1.57A3.29,3.29,0,0,1,378.5,317.41Zm1.13-1a1.79,1.79,0,0,0,.64-1.52c0-.76-.32-1.33-1.24-1.33s-1,.53-1,1.22.69,1.22,1.28,1.47Z" transform="translate(-302.74 -201.02)"/><path class="cls-11" d="M388.24,315.17a.66.66,0,0,1-.59-.62,2.61,2.61,0,0,1,.17-.78,1,1,0,0,0-.59-.12c-1.27,0-1.75,1.46-1.79,3.8l.11,0a1.57,1.57,0,0,1,1.56-1.28,2,2,0,0,1,2.05,2.16,2.53,2.53,0,0,1-2.61,2.62c-1.93,0-2.7-1.82-2.7-3.2,0-2.9,1.33-4.68,3-4.68,1.2,0,2,.58,2,1.35C388.86,314.92,388.58,315.17,388.24,315.17Zm-.58,3.44c0-1.05-.3-1.68-1.05-1.68a1.25,1.25,0,0,0-1.17,1.08c0,1.09.21,2.39,1.27,2.39C387.44,320.4,387.66,319.67,387.66,318.61Z" transform="translate(-302.74 -201.02)"/><path class="cls-11" d="M393.36,321c-.46,0-.72-.26-.72-.82a9.1,9.1,0,0,1,2.17-5.49l0-.22H392a.58.58,0,0,0-.58.4h-.29l.13-1.67h4.69v.55a10.39,10.39,0,0,0-1.94,6.44C394,320.72,393.78,321,393.36,321Z" transform="translate(-302.74 -201.02)"/></svg>
