<svg xmlns="http://www.w3.org/2000/svg" id="Layer_1" data-name="Layer 1" viewBox="0 0 232.98 97.54"><defs><style>.cls-1,.cls-10,.cls-7,.cls-8,.cls-9{fill:#fff;}.cls-2,.cls-3,.cls-5{fill:#003a63;}.cls-2,.cls-4,.cls-5{stroke:#fff;}.cls-2{stroke-width:0.16px;}.cls-4{fill:none;stroke-width:0.41px;}.cls-5{stroke-width:0.33px;}.cls-11,.cls-6{fill:#e31837;}.cls-6{stroke:#e31837;stroke-width:0.98px;}.cls-10,.cls-7,.cls-8,.cls-9{stroke:#fff;}.cls-7{stroke-width:0.3px;}.cls-8{stroke-width:0.3px;}.cls-9{stroke-width:0.25px;}.cls-10{stroke-width:0.25px;}</style></defs><title>site-logo-white_2</title><path class="cls-1" d="M326.94,345.24h0c-.25-.31-.34-.29-.49-.44s.34-.23.18-.54.23-.67.23-.83-.27-.28-.47-.57.2-.68-.14-.74h0c-.36,0,0,.58-.15.73s-.45.3-.46.57.46.4.23.84.28.43.18.53-.24.13-.49.45h.08l-7.21,0v-4.16l1.23-2.26h-2l0-21.1,1.24-2.27H317.7v-3.87h0a2.14,2.14,0,0,0-.48-.44c-.1-.11.35-.23.18-.54s.24-.67.23-.84-.26-.28-.46-.57.2-.67-.14-.73h0c-.36.05-.05.59-.15.74s-.46.29-.47.57.47.4.23.84.29.43.18.53-.24.13-.48.45h-2.59l0-3.57H294.25v3.57h-3.57c-.24-.31-.33-.29-.48-.44s.34-.23.18-.54.23-.67.23-.83-.27-.28-.46-.57.19-.68-.14-.74h0c-.36,0-.06.58-.16.73s-.45.3-.46.58.46.39.23.83.28.43.18.54-.24.12-.49.44h0l0,3.87h-1.25l1.25,2.29V338.8h-2l1.26,2.29v4.14h-6.85c-.24-.31-.33-.29-.49-.44s.35-.23.18-.54.24-.67.23-.83-.26-.28-.46-.57.2-.68-.14-.74h0c-.36,0-.05.58-.15.73s-.46.3-.47.57.47.4.23.84.29.43.18.53-.24.13-.48.45h.14l-1.44,0,1.26,2.27,0,5,46.54,0v-5l1.24-2.28-1.21,0Z" transform="translate(-279.12 -264.27)"/><path class="cls-1" d="M314.58,293.84l-2-1.92c-1.26-9-16.75-8.6-16.75.1l-2,1.36,1.85,1.77-.47,12.27v.65l17.84.11-.4-12.41,2-1.93Z" transform="translate(-279.12 -264.27)"/><path class="cls-1" d="M307.41,279.13l-.73-.48a2.45,2.45,0,0,0-2.11-2.43h0l-.4-12-.52,12h.06a2.31,2.31,0,0,0-2.11,2.49l-.77.44.73.53-.16,5.17v.25l1.6-.35h2.18l1.59.45-.1-5.53.73-.55Z" transform="translate(-279.12 -264.27)"/><polygon class="cls-2" points="2.66 82.56 46.17 82.57 45.73 83.09 3.13 83.09 2.66 82.56 2.66 82.56"/><polygon class="cls-2" points="10.63 76.28 38.18 76.28 37.9 76.8 10.94 76.8 10.63 76.28 10.63 76.28"/><polygon class="cls-2" points="15.39 44.31 34.34 44.32 34.15 44.68 15.59 44.68 15.39 44.31 15.39 44.31"/><path class="cls-3" d="M309.29,328.14a5.55,5.55,0,1,1-5.54-5.3,5.42,5.42,0,0,1,5.54,5.3Z" transform="translate(-279.12 -264.27)"/><path class="cls-3" d="M302.26,305.86h3.45v-9.23c0-2.11-3-2.44-3.25.19l-.2,9Z" transform="translate(-279.12 -264.27)"/><path class="cls-3" d="M296.44,307l2.92-.8v-9.23c0-2.1-2.58-1.73-2.75.95l-.17,9.08Z" transform="translate(-279.12 -264.27)"/><path class="cls-3" d="M309.06,306l2.65.62-.2-8.32c0-2.1-2.35-3.79-2.5-1.25l.05,8.95Z" transform="translate(-279.12 -264.27)"/><path class="cls-3" d="M303.59,283.75h1l0-2.7c0-.62-.9-.71-.95.06l0,2.64Z" transform="translate(-279.12 -264.27)"/><path class="cls-3" d="M301.84,284.07l.85-.23v-2.71c0-.61-.75-.5-.8.28l-.05,2.66Z" transform="translate(-279.12 -264.27)"/><path class="cls-3" d="M305.53,283.79l.78.18-.06-2.43c0-.62-.69-1.11-.73-.37v2.62Z" transform="translate(-279.12 -264.27)"/><polygon class="cls-1" points="24.45 60.37 23.74 64.01 28.48 65.62 24.55 63.53 24.45 60.37 24.45 60.37"/><polyline class="cls-4" points="16.42 27.71 20.63 25.68 27.35 25.62 32.11 26.71 33.56 27.52"/><path class="cls-5" d="M300,292.71l-4.48,1.52,0,.73.25-.57L300,293l6.31-.15,4.81,1.09h0l1.36,1.18.23.49V295l-1.47-1.34c-.05,0-4.89-1.12-4.89-1.12l-6.39.15Z" transform="translate(-279.12 -264.27)"/><polygon class="cls-2" points="10.26 54.56 38.54 54.56 38.54 53.55 10.26 53.55 10.26 54.56 10.26 54.56"/><polygon class="cls-1" points="11.91 53.93 10.24 53.93 10.24 53.44 11.91 53.44 11.91 53.93 11.91 53.93"/><polygon class="cls-1" points="15.24 53.93 13.58 53.93 13.58 53.44 15.24 53.44 15.24 53.93 15.24 53.93"/><polygon class="cls-1" points="18.59 53.93 16.93 53.93 16.93 53.44 18.59 53.44 18.59 53.93 18.59 53.93"/><polygon class="cls-1" points="21.92 53.93 20.26 53.93 20.26 53.44 21.92 53.44 21.92 53.93 21.92 53.93"/><polygon class="cls-1" points="25.27 53.93 23.61 53.93 23.61 53.44 25.27 53.44 25.27 53.93 25.27 53.93"/><polygon class="cls-1" points="28.59 53.93 26.93 53.93 26.93 53.44 28.59 53.44 28.59 53.93 28.59 53.93"/><polygon class="cls-1" points="31.91 53.93 30.25 53.93 30.25 53.44 31.91 53.44 31.91 53.93 31.91 53.93"/><polygon class="cls-1" points="38.59 53.93 36.93 53.93 36.93 53.44 38.59 53.44 38.59 53.93 38.59 53.93"/><polygon class="cls-1" points="35.24 53.93 33.58 53.93 33.58 53.44 35.24 53.44 35.24 53.93 35.24 53.93"/><polygon class="cls-3" points="12.68 51.05 12.2 51.05 12.2 48.03 12.68 48.03 12.68 51.05 12.68 51.05"/><polygon class="cls-3" points="14.18 51.05 13.7 51.05 13.7 48.03 14.18 48.03 14.18 51.05 14.18 51.05"/><polygon class="cls-3" points="15.67 51.05 15.19 51.05 15.19 48.03 15.67 48.03 15.67 51.05 15.67 51.05"/><polygon class="cls-3" points="17.16 51.05 16.69 51.05 16.69 48.03 17.16 48.03 17.16 51.05 17.16 51.05"/><polygon class="cls-3" points="18.66 51.05 18.18 51.05 18.18 48.03 18.66 48.03 18.66 51.05 18.66 51.05"/><polygon class="cls-3" points="20.15 51.05 19.68 51.05 19.68 48.03 20.15 48.03 20.15 51.05 20.15 51.05"/><polygon class="cls-3" points="21.65 51.05 21.17 51.05 21.17 48.03 21.65 48.03 21.65 51.05 21.65 51.05"/><polygon class="cls-3" points="23.14 51.05 22.67 51.05 22.67 48.03 23.14 48.03 23.14 51.05 23.14 51.05"/><polygon class="cls-3" points="26.12 51.05 25.64 51.05 25.64 48.03 26.12 48.03 26.12 51.05 26.12 51.05"/><polygon class="cls-3" points="27.62 51.05 27.14 51.05 27.14 48.03 27.62 48.03 27.62 51.05 27.62 51.05"/><polygon class="cls-3" points="29.11 51.05 28.63 51.05 28.63 48.03 29.11 48.03 29.11 51.05 29.11 51.05"/><polygon class="cls-3" points="30.61 51.05 30.13 51.05 30.13 48.03 30.61 48.03 30.61 51.05 30.61 51.05"/><polygon class="cls-3" points="32.1 51.05 31.62 51.05 31.62 48.03 32.1 48.03 32.1 51.05 32.1 51.05"/><polygon class="cls-3" points="33.59 51.05 33.12 51.05 33.12 48.03 33.59 48.03 33.59 51.05 33.59 51.05"/><polygon class="cls-3" points="35.09 51.05 34.61 51.05 34.61 48.03 35.09 48.03 35.09 51.05 35.09 51.05"/><polygon class="cls-3" points="36.58 51.05 36.11 51.05 36.11 48.03 36.58 48.03 36.58 51.05 36.58 51.05"/><line class="cls-6" x1="71.61" y1="65.08" x2="231.71" y2="65.08"/><path class="cls-7" d="M359.72,323.49v1l-4.26-.08-4.53.08v-1l2.72-.41V298.94l-2.75-.34,0-1.09,4.45.07,4.31-.07v1.09l-2.61.34v11.35h14.45V298.94l-2.68-.34,0-1.09,4.41.07,4.31-.07v1.09l-2.57.34V323l2.6.49v1l-4.27-.08-4.48.08v-1l2.64-.41V312H357.08v11Z" transform="translate(-279.12 -264.27)"/><path class="cls-7" d="M392.47,297.62c7.4,0,12.09,5.89,12.09,13.59s-4.69,13.56-12.09,13.56-12.11-5.85-12.11-13.56S385.05,297.62,392.47,297.62Zm0,25.52c5.94,0,8-5.15,8-11.93s-2.09-11.92-8-11.92-8,5.18-8,11.92S386.54,323.14,392.47,323.14Z" transform="translate(-279.12 -264.27)"/><path class="cls-7" d="M414,324.44l-6.79-24.78L404.8,299l0-1.08,4.3.08,4.72,0v1.22l-2.84.41,0,.33,4.94,18.71L422.68,298h2.13L432,318.77l4.27-18.89v-.3l-3.34-.48V298l4.16.07,3.69-.07v1.14l-2.45.53-6.18,24.74H430.6L423,302.59l-7.36,21.85Z" transform="translate(-279.12 -264.27)"/><path class="cls-8" d="M440.16,323.18s1.59-3.82,3.14-8.34L449.16,298h2L460,323l2.39.48v1l-4.27-.07-4.3.07v-1l2.64-.41-2.24-6.52h-9.66c-1.34,4-2.09,6.52-2.09,6.52l2.78.41v1l-3.87-.07-3.43.07v-1Zm5-8.37h8.39l-4.19-12.34Z" transform="translate(-279.12 -264.27)"/><path class="cls-7" d="M472.47,323.51v1l-4.22-.07-4.44.07v-1l2.66-.41V299.4l-2.7-.33,0-1.08H474.1c6.25,0,9.59,2.71,9.59,6.48s-2.63,5.37-6.18,6.08l.14.63c4,.11,5.79,2.59,5.79,5.66v1.75c0,3.25.68,4.48,1.71,4.48.6,0,1-.45,1.35-1.3l.67.48a3.76,3.76,0,0,1-3.55,2.41c-2.41,0-3.55-2.34-3.55-6v-1.81c0-2.26-1.17-5-3.84-5h-6.39V323Zm-2.63-24v10.85h3.26c5.48.11,7-3.07,7-5.78,0-2.44-1.45-5.11-6.25-5.07Z" transform="translate(-279.12 -264.27)"/><path class="cls-7" d="M498.62,298c8.46,0,13.32,6,13.32,12.89,0,8.85-5.79,13.56-13.32,13.56h-5.29l-4.41.07v-1l2.63-.41V299.4l-2.7-.33.07-1.08Zm-.28,25c7.88.15,9.84-6.59,9.84-12,0-5.15-2.67-11.52-10.2-11.48l-3,0v23.38Z" transform="translate(-279.12 -264.27)"/><path class="cls-9" d="M353,347.19v-12.1l-1.95-.23,0-.77,3.05.08,3.24-.08v.77l-1.87.23v12.05c0,3,1.9,4.35,5,4.35s5-1.45,5-4.61V335.09l-1.9-.23v-.77l2.62.08,2.45-.08,0,.77-1.92.23v11.84c0,4.06-2.94,6-7.1,6C356.21,353,353,351.07,353,347.19Z" transform="translate(-279.12 -264.27)"/><path class="cls-10" d="M383.35,334.79v-.7l2.91.05,2.94-.05v.7l-1.92.29s-.21,3-.21,6.52v11h-1.72l-11.23-14.51v6.54c0,4.5.21,7,.21,7l2,.34v.7l-2.7-.06-3,.06V352l2-.29s.15-2.31.15-7v-8.2c0-1.43-1.11-1.46-2.18-1.61l0-.76,3.74.08,11.39,14.91v-7.54c0-3.5-.18-6.41-.18-6.41Z" transform="translate(-279.12 -264.27)"/><path class="cls-10" d="M398,352v.7l-3.06-.06-3.28.06V352l1.95-.29V335.08l-2-.23,0-.76,3.22.08,3.1-.08v.76l-1.87.23v16.57Z" transform="translate(-279.12 -264.27)"/><path class="cls-10" d="M415.38,335.1l-6.31,17.53h-1.35l-6.35-17.53-1.79-.33v-.7l3.14.05,3.1-.05v.7l-1.9.28,5.1,14.31L414,335.05l-1.9-.28v-.7l2.78.05,2.34-.05v.7Z" transform="translate(-279.12 -264.27)"/><path class="cls-10" d="M431.94,334.09,432,339h-1l-.15-.63a3.84,3.84,0,0,0-4-3.16h-4.08v7.63H424c1.87,0,3.25-.47,3.25-2v-.52h.8v6h-.8v-.52c0-1.48-1.35-2-3.23-2h-1.19v7.8h4.94a4.36,4.36,0,0,0,4.39-3.1l.18-.64,1,0-.52,4.75H421.62l-3.25.06V352l1.95-.29V335.08l-2-.23,0-.76Z" transform="translate(-279.12 -264.27)"/><path class="cls-10" d="M442.45,352v.7l-3.1-.06-3.25.06V352l1.95-.29V335.08l-2-.23,0-.76h6.84c4.58,0,7,1.9,7,4.55s-1.92,3.76-4.52,4.26l.1.44c2.91.08,4.24,1.81,4.24,4v1.22c0,2.29.49,3.14,1.25,3.14.44,0,.72-.31,1-.9l.5.33a2.76,2.76,0,0,1-2.6,1.69c-1.77,0-2.6-1.64-2.6-4.23v-1.27c0-1.59-.86-3.54-2.81-3.54h-4v7.9Zm-1.93-16.83v7.61h1.69c4,.08,5.12-2.16,5.12-4.06,0-1.71-1.06-3.58-4.57-3.55Z" transform="translate(-279.12 -264.27)"/><path class="cls-10" d="M460.26,351.88a3.27,3.27,0,0,0,3.56-3.38c0-2.25-2.47-3.27-4.31-4.23-3.9-1.81-5-3.61-5-5.71,0-2.94,2.78-4.7,5.33-4.7a5.73,5.73,0,0,1,4.06,1.61l.41-1.4h.91v5h-1c-.39-2.88-2.21-4.2-4.32-4.2-2.36,0-3.43,1.27-3.43,3.16s2.37,2.73,4.63,3.95c3.25,1.69,4.89,3.35,4.89,5.56,0,3.43-2.68,5.37-5.67,5.37a6.21,6.21,0,0,1-4.53-1.79l-.44,1.51h-.8v-5.25l1.06,0C456.05,350.38,457.3,351.88,460.26,351.88Z" transform="translate(-279.12 -264.27)"/><path class="cls-10" d="M475.65,352v.7l-3.07-.06-3.27.06V352l1.95-.29V335.08l-2-.23,0-.76,3.22.08,3.1-.08v.76l-1.88.23v16.57Z" transform="translate(-279.12 -264.27)"/><path class="cls-10" d="M486.54,335.18V351.7l1.95.24,0,.75-3.1-.08-3.19.08v-.75l1.84-.24V335.18h-1.79c-2.19,0-3,1.25-3.61,3l-.27.78h-1l.29-4.83h15.13l.28,4.83h-1l-.26-.78c-.55-1.71-1.41-3-3.62-3Z" transform="translate(-279.12 -264.27)"/><path class="cls-10" d="M494,334.74V334l3,0,3.17,0v.7l-1.67.29v.26l4.45,8.36,4.37-8.24v-.36l-1.77-.28V334l3,0,2.18,0v.73l-1.67.33L503.65,345v6.7l1.9.34v.7l-3.12-.06-3.2.06V352l1.9-.29V345l-5.49-9.87Z" transform="translate(-279.12 -264.27)"/><path class="cls-11" d="M296.41,361.4v.36h-2.58v-.36l.72-.09V356.5h-.73v-.42a1.45,1.45,0,0,0,1.24-.63l.63,0v5.86Z" transform="translate(-279.12 -264.27)"/><path class="cls-11" d="M301.15,358.17l0,.13a2.15,2.15,0,0,1,1.37,1.74,1.9,1.9,0,0,1-2.12,1.77c-1.35,0-2.21-.68-2.21-1.5a1.61,1.61,0,0,1,1.28-1.46l0-.2a1.94,1.94,0,0,1-1.07-1.59,1.77,1.77,0,0,1,1.95-1.67c1.21,0,2,.63,2,1.41A1.5,1.5,0,0,1,301.15,358.17Zm-1.24.73a1.39,1.39,0,0,0-.75,1.32c0,.68.33,1.19,1.26,1.19.75,0,1-.48,1-1.1s-.65-1.06-1.2-1.28Zm.92-.78a1.45,1.45,0,0,0,.52-1.23c0-.62-.26-1.09-1-1.09s-.85.44-.85,1,.57,1,1.05,1.19Z" transform="translate(-279.12 -264.27)"/><path class="cls-11" d="M307.83,357.07a.53.53,0,0,1-.48-.5,1.89,1.89,0,0,1,.14-.63.88.88,0,0,0-.48-.1c-1,0-1.43,1.18-1.46,3.09h.09a1.29,1.29,0,0,1,1.27-1,1.63,1.63,0,0,1,1.67,1.76,2.06,2.06,0,0,1-2.13,2.13,2.37,2.37,0,0,1-2.19-2.6c0-2.36,1.08-3.81,2.43-3.81,1,0,1.65.48,1.64,1.1C308.33,356.87,308.1,357.07,307.83,357.07Zm-.48,2.8c0-.85-.24-1.37-.85-1.37a1,1,0,0,0-.95.88c0,.89.18,1.94,1,1.94C307.18,361.32,307.35,360.73,307.35,359.87Z" transform="translate(-279.12 -264.27)"/><path class="cls-11" d="M312,361.8c-.37,0-.58-.21-.58-.67a7.35,7.35,0,0,1,1.76-4.46v-.18h-2.31a.48.48,0,0,0-.47.33h-.24l.11-1.36h3.82v.44a8.42,8.42,0,0,0-1.58,5.24C312.49,361.59,312.33,361.8,312,361.8Z" transform="translate(-279.12 -264.27)"/></svg>
